{"title":"My Week With Marilyn [2011] 720p BRRip H264 AC3 - CODY","uid":7052987,"size":1594483607,"categoryP":"video","categoryS":"hd___movies","magnet":"?xt=urn:btih:3e7e1c8310b54cf43fe4a04894a43a95a17bc93a&amp;dn=My+Week+With+Marilyn+%5B2011%5D+720p+BRRip+H264+AC3+-+CODY&amp;tr=udp%3A%2F%2Ftracker.openbittorrent.com%3A80&amp;tr=udp%3A%2F%2Fopen.demonii.com%3A1337&amp;tr=udp%3A%2F%2Ftracker.coppersurfer.tk%3A6969&amp;tr=udp%3A%2F%2Fexodus.desync.com%3A6969","seeders":0,"leechers":0,"uploader":"CODYBOSS1969","files":5,"time":1330010887,"description":"General\nComplete name                            : My Week With Marilyn [2011] 720p BRRip H264 AC3 - CODY.mp4\nFormat                                   : MPEG-4\nFormat profile                           : Base Media\nCodec ID                                 : isom\nFile size                                : 1.48 GiB\nDuration                                 : 1h 38mn\nOverall bit rate mode                    : Variable\nOverall bit rate                         : 2 149 Kbps\nEncoded date                             : UTC 2012-02-23 04:19:31\nTagged date                              : UTC 2012-02-23 04:19:31\n\nVideo\nID                                       : 1\nFormat                                   : AVC\nFormat/Info                              : Advanced Video Codec\nFormat profile                           : &lt;a class=&quot;__cf_email__&quot; href=&quot;/cdn-cgi/l/email-protection&quot; data-cfemail=&quot;4e062729260e027a607f&quot;&gt;[email&amp;#160;protected]&lt;/a&gt;&lt;script cf-hash='f9e31' type=&quot;text/javascript&quot;&gt;\n/* &lt;![CDATA[ */!function(){try{var t=&quot;currentScript&quot;in document?document.currentScript:function(){for(var t=document.getElementsByTagName(&quot;script&quot;),e=t.length;e--;)if(t[e].getAttribute(&quot;cf-hash&quot;))return t[e]}();if(t&amp;&amp;t.previousSibling){var e,r,n,i,c=t.previousSibling,a=c.getAttribute(&quot;data-cfemail&quot;);if(a){for(e=&quot;&quot;,r=parseInt(a.substr(0,2),16),n=2;a.length-n;n+=2)i=parseInt(a.substr(n,2),16)^r,e+=String.fromCharCode(i);e=document.createTextNode(e),c.parentNode.replaceChild(e,c)}}}catch(u){}}();/* ]]&gt; */&lt;/script&gt;\nFormat settings, CABAC                   : Yes\nFormat settings, ReFrames                : 4 frames\nCodec ID                                 : avc1\nCodec ID/Info                            : Advanced Video Coding\nDuration                                 : 1h 38mn\nBit rate mode                            : Variable\nBit rate                                 : 1 700 Kbps\nMaximum bit rate                         : 20.0 Mbps\nWidth                                    : 1 280 pixels\nHeight                                   : 544 pixels\nDisplay aspect ratio                     : 2.35:1\nFrame rate mode                          : Constant\nFrame rate                               : 23.976 fps\nColor space                              : YUV\nChroma subsampling                       : 4:2:0\nBit depth                                : 8 bits\nScan type                                : Progressive\nBits/(Pixel*Frame)                       : 0.102\nStream size                              : 1.17 GiB (79%)\nWriting library                          : x264 core 119 r2106 07efeb4\nEncoding settings                        : cabac=1 / ref=4 / deblock=1:0:0 / \nanalyse=0x3:0x113 / me=umh / subme=9 / psy=1 / psy_rd=1.00:1.00 / mixed_ref=1 / \nme_range=16 / chroma_me=1 / trellis=2 / 8x8dct=1 / cqm=0 / deadzone=21,11 / fast_pskip=0 / \nchroma_qp_offset=-6 / threads=9 / sliced_threads=0 / slices=4 / nr=0 / decimate=1 / \ninterlaced=0 / bluray_compat=0 / constrained_intra=0 / bframes=4 / b_pyramid=2 / b_adapt=2 /\n b_bias=0 / direct=3 / weightb=1 / open_gop=0 / weightp=2 / keyint=250 / keyint_min=23 /\n scenecut=40 / intra_refresh=0 / rc_lookahead=50 / rc=2pass / mbtree=1 / bitrate=1700 /\n ratetol=1.0 / qcomp=0.90 / qpmin=10 / qpmax=51 / qpstep=4 / cplxblur=20.0 / qblur=0.5 /\n vbv_maxrate=20000 / vbv_bufsize=30000 / nal_hrd=vbr / ip_ratio=1.40 / aq=1:1.00\nEncoded date                             : UTC 2012-02-23 04:19:31\nTagged date                              : UTC 2012-02-23 04:19:54\n\nAudio\nID                                       : 2\nFormat                                   : AC-3\nFormat/Info                              : Audio Coding 3\nMode extension                           : CM (complete main)\nCodec ID                                 : ac-3\nDuration                                 : 1h 38mn\nBit rate mode                            : Constant\nBit rate                                 : 448 Kbps\nChannel(s)                               : 6 channels\nChannel positions                        : Front: L C R, Side: L R, LFE\nSampling rate                            : 48.0 KHz\nBit depth                                : 16 bits\nCompression mode                         : Lossy\nStream size                              : 317 MiB (21%)\nEncoded date                             : UTC 2012-02-23 04:19:51\nTagged date                              : UTC 2012-02-23 04:19:54\n\n\n\n\nIMDB link:                                &lt;a href=&quot; http://www.imdb.com/title/tt1655420/&quot; rel=&quot;nofollow&quot; target=&quot;_NEW&quot;&gt; http://www.imdb.com/title/tt1655420/&lt;/a&gt;\n\n\n\n\nSubtitles included                       : Romanian\n\n\n\n\nPlease seed at least 1,5:1 . This way this torrent has a chance to survive !\n\n\n\n\nThanks . Enjoy !!","torrent":{"xt":"urn:btih:3e7e1c8310b54cf43fe4a04894a43a95a17bc93a","amp;dn":"My+Week+With+Marilyn+%5B2011%5D+720p+BRRip+H264+AC3+-+CODY","amp;tr":["udp%3A%2F%2Ftracker.openbittorrent.com%3A80","udp%3A%2F%2Fopen.demonii.com%3A1337","udp%3A%2F%2Ftracker.coppersurfer.tk%3A6969","udp%3A%2F%2Fexodus.desync.com%3A6969"],"infoHash":"3e7e1c8310b54cf43fe4a04894a43a95a17bc93a","infoHashBuffer":{"type":"Buffer","data":[62,126,28,131,16,181,76,244,63,228,160,72,148,164,58,149,161,123,201,58]},"announce":[],"urlList":[]}}